<mxfile host="app.diagrams.net" modified="2022-12-20T04:51:45.570Z" agent="5.0 (Windows NT 10.0; Win64; x64) AppleWebKit/537.36 (KHTML, like Gecko) Chrome/108.0.0.0 Safari/537.36" etag="0lBmfYF8MmYOwU_YQuDK" version="20.7.3" type="github">
  <diagram id="C5RBs43oDa-KdzZeNtuy" name="Page-1">
    <mxGraphModel dx="2620" dy="955" grid="1" gridSize="10" guides="1" tooltips="1" connect="1" arrows="1" fold="1" page="1" pageScale="1" pageWidth="827" pageHeight="1169" math="0" shadow="0">
      <root>
        <mxCell id="WIyWlLk6GJQsqaUBKTNV-0" />
        <mxCell id="WIyWlLk6GJQsqaUBKTNV-1" parent="WIyWlLk6GJQsqaUBKTNV-0" />
        <mxCell id="zkfFHV4jXpPFQw0GAbJ--0" value="Fact_purchase_order_line" style="swimlane;fontStyle=2;align=center;verticalAlign=top;childLayout=stackLayout;horizontal=1;startSize=26;horizontalStack=0;resizeParent=1;resizeLast=0;collapsible=1;marginBottom=0;rounded=0;shadow=0;strokeWidth=1;swimlaneLine=1;fillColor=#d5e8d4;strokeColor=#82b366;" parent="WIyWlLk6GJQsqaUBKTNV-1" vertex="1">
          <mxGeometry x="420" y="230" width="210" height="510" as="geometry">
            <mxRectangle x="230" y="140" width="160" height="26" as="alternateBounds" />
          </mxGeometry>
        </mxCell>
        <mxCell id="zkfFHV4jXpPFQw0GAbJ--1" value="purchase_order_line_key" style="text;align=left;verticalAlign=top;spacingLeft=4;spacingRight=4;overflow=hidden;rotatable=0;points=[[0,0.5],[1,0.5]];portConstraint=eastwest;" parent="zkfFHV4jXpPFQw0GAbJ--0" vertex="1">
          <mxGeometry y="26" width="210" height="26" as="geometry" />
        </mxCell>
        <mxCell id="zkfFHV4jXpPFQw0GAbJ--3" value="description" style="text;align=left;verticalAlign=top;spacingLeft=4;spacingRight=4;overflow=hidden;rotatable=0;points=[[0,0.5],[1,0.5]];portConstraint=eastwest;rounded=0;shadow=0;html=0;" parent="zkfFHV4jXpPFQw0GAbJ--0" vertex="1">
          <mxGeometry y="52" width="210" height="26" as="geometry" />
        </mxCell>
        <mxCell id="xJLlcKTlmaiggf84LCdM-2" value="purchase_order_key" style="text;align=left;verticalAlign=top;spacingLeft=4;spacingRight=4;overflow=hidden;rotatable=0;points=[[0,0.5],[1,0.5]];portConstraint=eastwest;rounded=0;shadow=0;html=0;" parent="zkfFHV4jXpPFQw0GAbJ--0" vertex="1">
          <mxGeometry y="78" width="210" height="26" as="geometry" />
        </mxCell>
        <mxCell id="xJLlcKTlmaiggf84LCdM-3" value="supplier_key" style="text;align=left;verticalAlign=top;spacingLeft=4;spacingRight=4;overflow=hidden;rotatable=0;points=[[0,0.5],[1,0.5]];portConstraint=eastwest;rounded=0;shadow=0;html=0;" parent="zkfFHV4jXpPFQw0GAbJ--0" vertex="1">
          <mxGeometry y="104" width="210" height="26" as="geometry" />
        </mxCell>
        <mxCell id="xJLlcKTlmaiggf84LCdM-146" value="delivery_method_key" style="text;align=left;verticalAlign=top;spacingLeft=4;spacingRight=4;overflow=hidden;rotatable=0;points=[[0,0.5],[1,0.5]];portConstraint=eastwest;rounded=0;shadow=0;html=0;" parent="zkfFHV4jXpPFQw0GAbJ--0" vertex="1">
          <mxGeometry y="130" width="210" height="26" as="geometry" />
        </mxCell>
        <mxCell id="xJLlcKTlmaiggf84LCdM-99" value="delivery_method_name" style="text;align=left;verticalAlign=top;spacingLeft=4;spacingRight=4;overflow=hidden;rotatable=0;points=[[0,0.5],[1,0.5]];portConstraint=eastwest;rounded=0;shadow=0;html=0;" parent="zkfFHV4jXpPFQw0GAbJ--0" vertex="1">
          <mxGeometry y="156" width="210" height="26" as="geometry" />
        </mxCell>
        <mxCell id="BoJe7YM0-NKBy9dzcwYk-1" value="" style="endArrow=none;dashed=1;html=1;rounded=0;" edge="1" parent="zkfFHV4jXpPFQw0GAbJ--0">
          <mxGeometry width="50" height="50" relative="1" as="geometry">
            <mxPoint x="-20" y="182" as="sourcePoint" />
            <mxPoint x="230" y="182" as="targetPoint" />
          </mxGeometry>
        </mxCell>
        <mxCell id="xJLlcKTlmaiggf84LCdM-5" value="contact_person_key" style="text;align=left;verticalAlign=top;spacingLeft=4;spacingRight=4;overflow=hidden;rotatable=0;points=[[0,0.5],[1,0.5]];portConstraint=eastwest;rounded=0;shadow=0;html=0;" parent="zkfFHV4jXpPFQw0GAbJ--0" vertex="1">
          <mxGeometry y="182" width="210" height="26" as="geometry" />
        </mxCell>
        <mxCell id="xJLlcKTlmaiggf84LCdM-145" value="order_date" style="text;align=left;verticalAlign=top;spacingLeft=4;spacingRight=4;overflow=hidden;rotatable=0;points=[[0,0.5],[1,0.5]];portConstraint=eastwest;rounded=0;shadow=0;html=0;" parent="zkfFHV4jXpPFQw0GAbJ--0" vertex="1">
          <mxGeometry y="208" width="210" height="26" as="geometry" />
        </mxCell>
        <mxCell id="xJLlcKTlmaiggf84LCdM-143" value="expected_delivery_date" style="text;align=left;verticalAlign=top;spacingLeft=4;spacingRight=4;overflow=hidden;rotatable=0;points=[[0,0.5],[1,0.5]];portConstraint=eastwest;rounded=0;shadow=0;html=0;" parent="zkfFHV4jXpPFQw0GAbJ--0" vertex="1">
          <mxGeometry y="234" width="210" height="26" as="geometry" />
        </mxCell>
        <mxCell id="xJLlcKTlmaiggf84LCdM-144" value="supplier_reference" style="text;align=left;verticalAlign=top;spacingLeft=4;spacingRight=4;overflow=hidden;rotatable=0;points=[[0,0.5],[1,0.5]];portConstraint=eastwest;rounded=0;shadow=0;html=0;" parent="zkfFHV4jXpPFQw0GAbJ--0" vertex="1">
          <mxGeometry y="260" width="210" height="26" as="geometry" />
        </mxCell>
        <mxCell id="xJLlcKTlmaiggf84LCdM-98" value="is_order_finalized" style="text;align=left;verticalAlign=top;spacingLeft=4;spacingRight=4;overflow=hidden;rotatable=0;points=[[0,0.5],[1,0.5]];portConstraint=eastwest;rounded=0;shadow=0;html=0;" parent="zkfFHV4jXpPFQw0GAbJ--0" vertex="1">
          <mxGeometry y="286" width="210" height="26" as="geometry" />
        </mxCell>
        <mxCell id="xJLlcKTlmaiggf84LCdM-4" value="product_key" style="text;align=left;verticalAlign=top;spacingLeft=4;spacingRight=4;overflow=hidden;rotatable=0;points=[[0,0.5],[1,0.5]];portConstraint=eastwest;rounded=0;shadow=0;html=0;" parent="zkfFHV4jXpPFQw0GAbJ--0" vertex="1">
          <mxGeometry y="312" width="210" height="26" as="geometry" />
        </mxCell>
        <mxCell id="xJLlcKTlmaiggf84LCdM-100" value="ordered_outers" style="text;align=left;verticalAlign=top;spacingLeft=4;spacingRight=4;overflow=hidden;rotatable=0;points=[[0,0.5],[1,0.5]];portConstraint=eastwest;rounded=0;shadow=0;html=0;" parent="zkfFHV4jXpPFQw0GAbJ--0" vertex="1">
          <mxGeometry y="338" width="210" height="26" as="geometry" />
        </mxCell>
        <mxCell id="xJLlcKTlmaiggf84LCdM-102" value="received_outers" style="text;align=left;verticalAlign=top;spacingLeft=4;spacingRight=4;overflow=hidden;rotatable=0;points=[[0,0.5],[1,0.5]];portConstraint=eastwest;rounded=0;shadow=0;html=0;" parent="zkfFHV4jXpPFQw0GAbJ--0" vertex="1">
          <mxGeometry y="364" width="210" height="26" as="geometry" />
        </mxCell>
        <mxCell id="xJLlcKTlmaiggf84LCdM-138" value="package_type_key" style="text;align=left;verticalAlign=top;spacingLeft=4;spacingRight=4;overflow=hidden;rotatable=0;points=[[0,0.5],[1,0.5]];portConstraint=eastwest;rounded=0;shadow=0;html=0;" parent="zkfFHV4jXpPFQw0GAbJ--0" vertex="1">
          <mxGeometry y="390" width="210" height="26" as="geometry" />
        </mxCell>
        <mxCell id="xJLlcKTlmaiggf84LCdM-6" value="expected_unit_price_per_outer	" style="text;align=left;verticalAlign=top;spacingLeft=4;spacingRight=4;overflow=hidden;rotatable=0;points=[[0,0.5],[1,0.5]];portConstraint=eastwest;rounded=0;shadow=0;html=0;" parent="zkfFHV4jXpPFQw0GAbJ--0" vertex="1">
          <mxGeometry y="416" width="210" height="26" as="geometry" />
        </mxCell>
        <mxCell id="xJLlcKTlmaiggf84LCdM-7" value="is_order_line_finalized" style="text;align=left;verticalAlign=top;spacingLeft=4;spacingRight=4;overflow=hidden;rotatable=0;points=[[0,0.5],[1,0.5]];portConstraint=eastwest;rounded=0;shadow=0;html=0;" parent="zkfFHV4jXpPFQw0GAbJ--0" vertex="1">
          <mxGeometry y="442" width="210" height="26" as="geometry" />
        </mxCell>
        <mxCell id="xJLlcKTlmaiggf84LCdM-70" value="last_receipt_date" style="text;align=left;verticalAlign=top;spacingLeft=4;spacingRight=4;overflow=hidden;rotatable=0;points=[[0,0.5],[1,0.5]];portConstraint=eastwest;rounded=0;shadow=0;html=0;" parent="zkfFHV4jXpPFQw0GAbJ--0" vertex="1">
          <mxGeometry y="468" width="210" height="26" as="geometry" />
        </mxCell>
        <mxCell id="zkfFHV4jXpPFQw0GAbJ--12" value="" style="endArrow=block;endSize=10;endFill=0;shadow=0;strokeWidth=1;rounded=0;edgeStyle=elbowEdgeStyle;exitX=1;exitY=0.5;exitDx=0;exitDy=0;entryX=0;entryY=0.5;entryDx=0;entryDy=0;" parent="WIyWlLk6GJQsqaUBKTNV-1" source="xJLlcKTlmaiggf84LCdM-81" target="xJLlcKTlmaiggf84LCdM-3" edge="1">
          <mxGeometry width="160" relative="1" as="geometry">
            <mxPoint x="210" y="129.0000000000001" as="sourcePoint" />
            <mxPoint x="200" y="203" as="targetPoint" />
          </mxGeometry>
        </mxCell>
        <mxCell id="zkfFHV4jXpPFQw0GAbJ--13" value="Dim_person" style="swimlane;fontStyle=0;align=center;verticalAlign=top;childLayout=stackLayout;horizontal=1;startSize=26;horizontalStack=0;resizeParent=1;resizeLast=0;collapsible=1;marginBottom=0;rounded=0;shadow=0;strokeWidth=1;fillColor=#d5e8d4;strokeColor=#82b366;" parent="WIyWlLk6GJQsqaUBKTNV-1" vertex="1">
          <mxGeometry x="810" y="30" width="160" height="290" as="geometry">
            <mxRectangle x="340" y="380" width="170" height="26" as="alternateBounds" />
          </mxGeometry>
        </mxCell>
        <mxCell id="zkfFHV4jXpPFQw0GAbJ--14" value="person_key" style="text;align=left;verticalAlign=top;spacingLeft=4;spacingRight=4;overflow=hidden;rotatable=0;points=[[0,0.5],[1,0.5]];portConstraint=eastwest;" parent="zkfFHV4jXpPFQw0GAbJ--13" vertex="1">
          <mxGeometry y="26" width="160" height="26" as="geometry" />
        </mxCell>
        <mxCell id="xJLlcKTlmaiggf84LCdM-56" value="full_name" style="text;align=left;verticalAlign=top;spacingLeft=4;spacingRight=4;overflow=hidden;rotatable=0;points=[[0,0.5],[1,0.5]];portConstraint=eastwest;" parent="zkfFHV4jXpPFQw0GAbJ--13" vertex="1">
          <mxGeometry y="52" width="160" height="26" as="geometry" />
        </mxCell>
        <mxCell id="xJLlcKTlmaiggf84LCdM-57" value="preferred_name&#xa;" style="text;align=left;verticalAlign=top;spacingLeft=4;spacingRight=4;overflow=hidden;rotatable=0;points=[[0,0.5],[1,0.5]];portConstraint=eastwest;" parent="zkfFHV4jXpPFQw0GAbJ--13" vertex="1">
          <mxGeometry y="78" width="160" height="26" as="geometry" />
        </mxCell>
        <mxCell id="xJLlcKTlmaiggf84LCdM-60" value="search_name" style="text;align=left;verticalAlign=top;spacingLeft=4;spacingRight=4;overflow=hidden;rotatable=0;points=[[0,0.5],[1,0.5]];portConstraint=eastwest;" parent="zkfFHV4jXpPFQw0GAbJ--13" vertex="1">
          <mxGeometry y="104" width="160" height="26" as="geometry" />
        </mxCell>
        <mxCell id="k6A8KLiCEBiVcEmz783S-1" value="is_permiitted_to_logon" style="text;align=left;verticalAlign=top;spacingLeft=4;spacingRight=4;overflow=hidden;rotatable=0;points=[[0,0.5],[1,0.5]];portConstraint=eastwest;" parent="zkfFHV4jXpPFQw0GAbJ--13" vertex="1">
          <mxGeometry y="130" width="160" height="26" as="geometry" />
        </mxCell>
        <mxCell id="k6A8KLiCEBiVcEmz783S-2" value="logon_name" style="text;align=left;verticalAlign=top;spacingLeft=4;spacingRight=4;overflow=hidden;rotatable=0;points=[[0,0.5],[1,0.5]];portConstraint=eastwest;" parent="zkfFHV4jXpPFQw0GAbJ--13" vertex="1">
          <mxGeometry y="156" width="160" height="26" as="geometry" />
        </mxCell>
        <mxCell id="xJLlcKTlmaiggf84LCdM-153" value="is_external_logon_provider" style="text;align=left;verticalAlign=top;spacingLeft=4;spacingRight=4;overflow=hidden;rotatable=0;points=[[0,0.5],[1,0.5]];portConstraint=eastwest;rounded=0;shadow=0;html=0;" parent="zkfFHV4jXpPFQw0GAbJ--13" vertex="1">
          <mxGeometry y="182" width="160" height="26" as="geometry" />
        </mxCell>
        <mxCell id="xJLlcKTlmaiggf84LCdM-154" value="is_system_user" style="text;align=left;verticalAlign=top;spacingLeft=4;spacingRight=4;overflow=hidden;rotatable=0;points=[[0,0.5],[1,0.5]];portConstraint=eastwest;rounded=0;shadow=0;html=0;" parent="zkfFHV4jXpPFQw0GAbJ--13" vertex="1">
          <mxGeometry y="208" width="160" height="26" as="geometry" />
        </mxCell>
        <mxCell id="xJLlcKTlmaiggf84LCdM-155" value="is_employee" style="text;align=left;verticalAlign=top;spacingLeft=4;spacingRight=4;overflow=hidden;rotatable=0;points=[[0,0.5],[1,0.5]];portConstraint=eastwest;rounded=0;shadow=0;html=0;" parent="zkfFHV4jXpPFQw0GAbJ--13" vertex="1">
          <mxGeometry y="234" width="160" height="26" as="geometry" />
        </mxCell>
        <mxCell id="xJLlcKTlmaiggf84LCdM-156" value="is_sales_person" style="text;align=left;verticalAlign=top;spacingLeft=4;spacingRight=4;overflow=hidden;rotatable=0;points=[[0,0.5],[1,0.5]];portConstraint=eastwest;rounded=0;shadow=0;html=0;" parent="zkfFHV4jXpPFQw0GAbJ--13" vertex="1">
          <mxGeometry y="260" width="160" height="26" as="geometry" />
        </mxCell>
        <mxCell id="xJLlcKTlmaiggf84LCdM-61" value="Dim_product" style="swimlane;fontStyle=0;align=center;verticalAlign=top;childLayout=stackLayout;horizontal=1;startSize=26;horizontalStack=0;resizeParent=1;resizeLast=0;collapsible=1;marginBottom=0;rounded=0;shadow=0;strokeWidth=1;glass=0;sketch=0;fillColor=#d5e8d4;strokeColor=#82b366;" parent="WIyWlLk6GJQsqaUBKTNV-1" vertex="1">
          <mxGeometry x="780" y="440" width="190" height="940" as="geometry">
            <mxRectangle x="340" y="380" width="170" height="26" as="alternateBounds" />
          </mxGeometry>
        </mxCell>
        <mxCell id="xJLlcKTlmaiggf84LCdM-62" value="product_key" style="text;align=left;verticalAlign=top;spacingLeft=4;spacingRight=4;overflow=hidden;rotatable=0;points=[[0,0.5],[1,0.5]];portConstraint=eastwest;" parent="xJLlcKTlmaiggf84LCdM-61" vertex="1">
          <mxGeometry y="26" width="190" height="26" as="geometry" />
        </mxCell>
        <mxCell id="xJLlcKTlmaiggf84LCdM-63" value="product_name" style="text;align=left;verticalAlign=top;spacingLeft=4;spacingRight=4;overflow=hidden;rotatable=0;points=[[0,0.5],[1,0.5]];portConstraint=eastwest;" parent="xJLlcKTlmaiggf84LCdM-61" vertex="1">
          <mxGeometry y="52" width="190" height="26" as="geometry" />
        </mxCell>
        <mxCell id="xJLlcKTlmaiggf84LCdM-64" value="brand_name" style="text;align=left;verticalAlign=top;spacingLeft=4;spacingRight=4;overflow=hidden;rotatable=0;points=[[0,0.5],[1,0.5]];portConstraint=eastwest;" parent="xJLlcKTlmaiggf84LCdM-61" vertex="1">
          <mxGeometry y="78" width="190" height="26" as="geometry" />
        </mxCell>
        <mxCell id="xJLlcKTlmaiggf84LCdM-65" value="size" style="text;align=left;verticalAlign=top;spacingLeft=4;spacingRight=4;overflow=hidden;rotatable=0;points=[[0,0.5],[1,0.5]];portConstraint=eastwest;" parent="xJLlcKTlmaiggf84LCdM-61" vertex="1">
          <mxGeometry y="104" width="190" height="26" as="geometry" />
        </mxCell>
        <mxCell id="xJLlcKTlmaiggf84LCdM-66" value="lead_time_days" style="text;align=left;verticalAlign=top;spacingLeft=4;spacingRight=4;overflow=hidden;rotatable=0;points=[[0,0.5],[1,0.5]];portConstraint=eastwest;" parent="xJLlcKTlmaiggf84LCdM-61" vertex="1">
          <mxGeometry y="130" width="190" height="26" as="geometry" />
        </mxCell>
        <mxCell id="xJLlcKTlmaiggf84LCdM-67" value="quantity_per_outer" style="text;align=left;verticalAlign=top;spacingLeft=4;spacingRight=4;overflow=hidden;rotatable=0;points=[[0,0.5],[1,0.5]];portConstraint=eastwest;" parent="xJLlcKTlmaiggf84LCdM-61" vertex="1">
          <mxGeometry y="156" width="190" height="26" as="geometry" />
        </mxCell>
        <mxCell id="xJLlcKTlmaiggf84LCdM-71" value="is_chiller_stock" style="text;align=left;verticalAlign=top;spacingLeft=4;spacingRight=4;overflow=hidden;rotatable=0;points=[[0,0.5],[1,0.5]];portConstraint=eastwest;" parent="xJLlcKTlmaiggf84LCdM-61" vertex="1">
          <mxGeometry y="182" width="190" height="26" as="geometry" />
        </mxCell>
        <mxCell id="xJLlcKTlmaiggf84LCdM-72" value="barcode" style="text;align=left;verticalAlign=top;spacingLeft=4;spacingRight=4;overflow=hidden;rotatable=0;points=[[0,0.5],[1,0.5]];portConstraint=eastwest;" parent="xJLlcKTlmaiggf84LCdM-61" vertex="1">
          <mxGeometry y="208" width="190" height="26" as="geometry" />
        </mxCell>
        <mxCell id="xJLlcKTlmaiggf84LCdM-73" value="tax_rate" style="text;align=left;verticalAlign=top;spacingLeft=4;spacingRight=4;overflow=hidden;rotatable=0;points=[[0,0.5],[1,0.5]];portConstraint=eastwest;" parent="xJLlcKTlmaiggf84LCdM-61" vertex="1">
          <mxGeometry y="234" width="190" height="26" as="geometry" />
        </mxCell>
        <mxCell id="xJLlcKTlmaiggf84LCdM-74" value="unit_price" style="text;align=left;verticalAlign=top;spacingLeft=4;spacingRight=4;overflow=hidden;rotatable=0;points=[[0,0.5],[1,0.5]];portConstraint=eastwest;" parent="xJLlcKTlmaiggf84LCdM-61" vertex="1">
          <mxGeometry y="260" width="190" height="26" as="geometry" />
        </mxCell>
        <mxCell id="xJLlcKTlmaiggf84LCdM-75" value="recommended_retail_price" style="text;align=left;verticalAlign=top;spacingLeft=4;spacingRight=4;overflow=hidden;rotatable=0;points=[[0,0.5],[1,0.5]];portConstraint=eastwest;" parent="xJLlcKTlmaiggf84LCdM-61" vertex="1">
          <mxGeometry y="286" width="190" height="26" as="geometry" />
        </mxCell>
        <mxCell id="xJLlcKTlmaiggf84LCdM-76" value="typical_weight_per_unit" style="text;align=left;verticalAlign=top;spacingLeft=4;spacingRight=4;overflow=hidden;rotatable=0;points=[[0,0.5],[1,0.5]];portConstraint=eastwest;" parent="xJLlcKTlmaiggf84LCdM-61" vertex="1">
          <mxGeometry y="312" width="190" height="26" as="geometry" />
        </mxCell>
        <mxCell id="xJLlcKTlmaiggf84LCdM-77" value="tags" style="text;align=left;verticalAlign=top;spacingLeft=4;spacingRight=4;overflow=hidden;rotatable=0;points=[[0,0.5],[1,0.5]];portConstraint=eastwest;" parent="xJLlcKTlmaiggf84LCdM-61" vertex="1">
          <mxGeometry y="338" width="190" height="26" as="geometry" />
        </mxCell>
        <mxCell id="xJLlcKTlmaiggf84LCdM-78" value="search_details" style="text;align=left;verticalAlign=top;spacingLeft=4;spacingRight=4;overflow=hidden;rotatable=0;points=[[0,0.5],[1,0.5]];portConstraint=eastwest;" parent="xJLlcKTlmaiggf84LCdM-61" vertex="1">
          <mxGeometry y="364" width="190" height="26" as="geometry" />
        </mxCell>
        <mxCell id="xJLlcKTlmaiggf84LCdM-88" value="supplier_key" style="text;align=left;verticalAlign=top;spacingLeft=4;spacingRight=4;overflow=hidden;rotatable=0;points=[[0,0.5],[1,0.5]];portConstraint=eastwest;" parent="xJLlcKTlmaiggf84LCdM-61" vertex="1">
          <mxGeometry y="390" width="190" height="26" as="geometry" />
        </mxCell>
        <mxCell id="xJLlcKTlmaiggf84LCdM-89" value="supplier_name" style="text;align=left;verticalAlign=top;spacingLeft=4;spacingRight=4;overflow=hidden;rotatable=0;points=[[0,0.5],[1,0.5]];portConstraint=eastwest;" parent="xJLlcKTlmaiggf84LCdM-61" vertex="1">
          <mxGeometry y="416" width="190" height="26" as="geometry" />
        </mxCell>
        <mxCell id="xJLlcKTlmaiggf84LCdM-190" value="supplier_reference" style="text;align=left;verticalAlign=top;spacingLeft=4;spacingRight=4;overflow=hidden;rotatable=0;points=[[0,0.5],[1,0.5]];portConstraint=eastwest;" parent="xJLlcKTlmaiggf84LCdM-61" vertex="1">
          <mxGeometry y="442" width="190" height="26" as="geometry" />
        </mxCell>
        <mxCell id="xJLlcKTlmaiggf84LCdM-191" value="bank_account_name" style="text;align=left;verticalAlign=top;spacingLeft=4;spacingRight=4;overflow=hidden;rotatable=0;points=[[0,0.5],[1,0.5]];portConstraint=eastwest;" parent="xJLlcKTlmaiggf84LCdM-61" vertex="1">
          <mxGeometry y="468" width="190" height="26" as="geometry" />
        </mxCell>
        <mxCell id="xJLlcKTlmaiggf84LCdM-192" value="bank_account_code" style="text;align=left;verticalAlign=top;spacingLeft=4;spacingRight=4;overflow=hidden;rotatable=0;points=[[0,0.5],[1,0.5]];portConstraint=eastwest;" parent="xJLlcKTlmaiggf84LCdM-61" vertex="1">
          <mxGeometry y="494" width="190" height="26" as="geometry" />
        </mxCell>
        <mxCell id="xJLlcKTlmaiggf84LCdM-193" value="bank_account_international_code" style="text;align=left;verticalAlign=top;spacingLeft=4;spacingRight=4;overflow=hidden;rotatable=0;points=[[0,0.5],[1,0.5]];portConstraint=eastwest;" parent="xJLlcKTlmaiggf84LCdM-61" vertex="1">
          <mxGeometry y="520" width="190" height="26" as="geometry" />
        </mxCell>
        <mxCell id="xJLlcKTlmaiggf84LCdM-194" value="payment_day" style="text;align=left;verticalAlign=top;spacingLeft=4;spacingRight=4;overflow=hidden;rotatable=0;points=[[0,0.5],[1,0.5]];portConstraint=eastwest;" parent="xJLlcKTlmaiggf84LCdM-61" vertex="1">
          <mxGeometry y="546" width="190" height="26" as="geometry" />
        </mxCell>
        <mxCell id="sBeDFWltFYaBTrh585lc-4" value="delivery_postal_code" style="text;align=left;verticalAlign=top;spacingLeft=4;spacingRight=4;overflow=hidden;rotatable=0;points=[[0,0.5],[1,0.5]];portConstraint=eastwest;" parent="xJLlcKTlmaiggf84LCdM-61" vertex="1">
          <mxGeometry y="572" width="190" height="26" as="geometry" />
        </mxCell>
        <mxCell id="sBeDFWltFYaBTrh585lc-3" value="delivery_location" style="text;align=left;verticalAlign=top;spacingLeft=4;spacingRight=4;overflow=hidden;rotatable=0;points=[[0,0.5],[1,0.5]];portConstraint=eastwest;" parent="xJLlcKTlmaiggf84LCdM-61" vertex="1">
          <mxGeometry y="598" width="190" height="26" as="geometry" />
        </mxCell>
        <mxCell id="sBeDFWltFYaBTrh585lc-2" value="postal_postal_code" style="text;align=left;verticalAlign=top;spacingLeft=4;spacingRight=4;overflow=hidden;rotatable=0;points=[[0,0.5],[1,0.5]];portConstraint=eastwest;" parent="xJLlcKTlmaiggf84LCdM-61" vertex="1">
          <mxGeometry y="624" width="190" height="26" as="geometry" />
        </mxCell>
        <mxCell id="sBeDFWltFYaBTrh585lc-6" value="supplier_category_key" style="text;align=left;verticalAlign=top;spacingLeft=4;spacingRight=4;overflow=hidden;rotatable=0;points=[[0,0.5],[1,0.5]];portConstraint=eastwest;" parent="xJLlcKTlmaiggf84LCdM-61" vertex="1">
          <mxGeometry y="650" width="190" height="24" as="geometry" />
        </mxCell>
        <mxCell id="sBeDFWltFYaBTrh585lc-0" value="primary_contact_person_key" style="text;align=left;verticalAlign=top;spacingLeft=4;spacingRight=4;overflow=hidden;rotatable=0;points=[[0,0.5],[1,0.5]];portConstraint=eastwest;" parent="xJLlcKTlmaiggf84LCdM-61" vertex="1">
          <mxGeometry y="674" width="190" height="26" as="geometry" />
        </mxCell>
        <mxCell id="sBeDFWltFYaBTrh585lc-8" value="altermate_contact_person_key" style="text;align=left;verticalAlign=top;spacingLeft=4;spacingRight=4;overflow=hidden;rotatable=0;points=[[0,0.5],[1,0.5]];portConstraint=eastwest;" parent="xJLlcKTlmaiggf84LCdM-61" vertex="1">
          <mxGeometry y="700" width="190" height="26" as="geometry" />
        </mxCell>
        <mxCell id="xJLlcKTlmaiggf84LCdM-120" value="delivery_method_key" style="text;align=left;verticalAlign=top;spacingLeft=4;spacingRight=4;overflow=hidden;rotatable=0;points=[[0,0.5],[1,0.5]];portConstraint=eastwest;" parent="xJLlcKTlmaiggf84LCdM-61" vertex="1">
          <mxGeometry y="726" width="190" height="24" as="geometry" />
        </mxCell>
        <mxCell id="xJLlcKTlmaiggf84LCdM-95" value="delivery_city_key" style="text;align=left;verticalAlign=top;spacingLeft=4;spacingRight=4;overflow=hidden;rotatable=0;points=[[0,0.5],[1,0.5]];portConstraint=eastwest;" parent="xJLlcKTlmaiggf84LCdM-61" vertex="1">
          <mxGeometry y="750" width="190" height="24" as="geometry" />
        </mxCell>
        <mxCell id="xJLlcKTlmaiggf84LCdM-133" value="postal_city_key" style="text;align=left;verticalAlign=top;spacingLeft=4;spacingRight=4;overflow=hidden;rotatable=0;points=[[0,0.5],[1,0.5]];portConstraint=eastwest;" parent="xJLlcKTlmaiggf84LCdM-61" vertex="1">
          <mxGeometry y="774" width="190" height="24" as="geometry" />
        </mxCell>
        <mxCell id="xJLlcKTlmaiggf84LCdM-188" value="color_key" style="text;align=left;verticalAlign=top;spacingLeft=4;spacingRight=4;overflow=hidden;rotatable=0;points=[[0,0.5],[1,0.5]];portConstraint=eastwest;" parent="xJLlcKTlmaiggf84LCdM-61" vertex="1">
          <mxGeometry y="798" width="190" height="26" as="geometry" />
        </mxCell>
        <mxCell id="sBeDFWltFYaBTrh585lc-26" value="color_name" style="text;align=left;verticalAlign=top;spacingLeft=4;spacingRight=4;overflow=hidden;rotatable=0;points=[[0,0.5],[1,0.5]];portConstraint=eastwest;" parent="xJLlcKTlmaiggf84LCdM-61" vertex="1">
          <mxGeometry y="824" width="190" height="26" as="geometry" />
        </mxCell>
        <mxCell id="xJLlcKTlmaiggf84LCdM-189" value="unit_package_key" style="text;align=left;verticalAlign=top;spacingLeft=4;spacingRight=4;overflow=hidden;rotatable=0;points=[[0,0.5],[1,0.5]];portConstraint=eastwest;" parent="xJLlcKTlmaiggf84LCdM-61" vertex="1">
          <mxGeometry y="850" width="190" height="26" as="geometry" />
        </mxCell>
        <mxCell id="sBeDFWltFYaBTrh585lc-28" value="outer_package_key" style="text;align=left;verticalAlign=top;spacingLeft=4;spacingRight=4;overflow=hidden;rotatable=0;points=[[0,0.5],[1,0.5]];portConstraint=eastwest;" parent="xJLlcKTlmaiggf84LCdM-61" vertex="1">
          <mxGeometry y="876" width="190" height="26" as="geometry" />
        </mxCell>
        <mxCell id="sBeDFWltFYaBTrh585lc-29" value="package_type_name" style="text;align=left;verticalAlign=top;spacingLeft=4;spacingRight=4;overflow=hidden;rotatable=0;points=[[0,0.5],[1,0.5]];portConstraint=eastwest;" parent="xJLlcKTlmaiggf84LCdM-61" vertex="1">
          <mxGeometry y="902" width="190" height="26" as="geometry" />
        </mxCell>
        <mxCell id="xJLlcKTlmaiggf84LCdM-68" value="" style="endArrow=block;endSize=10;endFill=0;shadow=0;strokeWidth=1;rounded=0;edgeStyle=elbowEdgeStyle;entryX=1;entryY=0.5;entryDx=0;entryDy=0;exitX=0;exitY=0.5;exitDx=0;exitDy=0;" parent="WIyWlLk6GJQsqaUBKTNV-1" source="xJLlcKTlmaiggf84LCdM-62" target="xJLlcKTlmaiggf84LCdM-4" edge="1">
          <mxGeometry width="160" relative="1" as="geometry">
            <mxPoint x="550" y="330.0014285714287" as="sourcePoint" />
            <mxPoint x="450.0000000000002" y="330.0014285714287" as="targetPoint" />
            <Array as="points" />
          </mxGeometry>
        </mxCell>
        <mxCell id="xJLlcKTlmaiggf84LCdM-80" value="Dim_suplplier" style="swimlane;fontStyle=0;align=center;verticalAlign=top;childLayout=stackLayout;horizontal=1;startSize=26;horizontalStack=0;resizeParent=1;resizeLast=0;collapsible=1;marginBottom=0;rounded=0;shadow=0;strokeWidth=1;fillColor=#d5e8d4;strokeColor=#82b366;" parent="WIyWlLk6GJQsqaUBKTNV-1" vertex="1">
          <mxGeometry y="70" width="200" height="676" as="geometry">
            <mxRectangle x="340" y="380" width="170" height="26" as="alternateBounds" />
          </mxGeometry>
        </mxCell>
        <mxCell id="xJLlcKTlmaiggf84LCdM-81" value="supplier_key" style="text;align=left;verticalAlign=top;spacingLeft=4;spacingRight=4;overflow=hidden;rotatable=0;points=[[0,0.5],[1,0.5]];portConstraint=eastwest;" parent="xJLlcKTlmaiggf84LCdM-80" vertex="1">
          <mxGeometry y="26" width="200" height="26" as="geometry" />
        </mxCell>
        <mxCell id="sBeDFWltFYaBTrh585lc-10" value="supplier_name" style="text;align=left;verticalAlign=top;spacingLeft=4;spacingRight=4;overflow=hidden;rotatable=0;points=[[0,0.5],[1,0.5]];portConstraint=eastwest;" parent="xJLlcKTlmaiggf84LCdM-80" vertex="1">
          <mxGeometry y="52" width="200" height="26" as="geometry" />
        </mxCell>
        <mxCell id="sBeDFWltFYaBTrh585lc-11" value="supplier_reference" style="text;align=left;verticalAlign=top;spacingLeft=4;spacingRight=4;overflow=hidden;rotatable=0;points=[[0,0.5],[1,0.5]];portConstraint=eastwest;" parent="xJLlcKTlmaiggf84LCdM-80" vertex="1">
          <mxGeometry y="78" width="200" height="26" as="geometry" />
        </mxCell>
        <mxCell id="sBeDFWltFYaBTrh585lc-12" value="bank_account_name" style="text;align=left;verticalAlign=top;spacingLeft=4;spacingRight=4;overflow=hidden;rotatable=0;points=[[0,0.5],[1,0.5]];portConstraint=eastwest;" parent="xJLlcKTlmaiggf84LCdM-80" vertex="1">
          <mxGeometry y="104" width="200" height="26" as="geometry" />
        </mxCell>
        <mxCell id="Ml-9U8iZSdq3yle-t_jp-11" value="bank_account_branch" style="text;align=left;verticalAlign=top;spacingLeft=4;spacingRight=4;overflow=hidden;rotatable=0;points=[[0,0.5],[1,0.5]];portConstraint=eastwest;" parent="xJLlcKTlmaiggf84LCdM-80" vertex="1">
          <mxGeometry y="130" width="200" height="26" as="geometry" />
        </mxCell>
        <mxCell id="sBeDFWltFYaBTrh585lc-13" value="bank_account_code" style="text;align=left;verticalAlign=top;spacingLeft=4;spacingRight=4;overflow=hidden;rotatable=0;points=[[0,0.5],[1,0.5]];portConstraint=eastwest;" parent="xJLlcKTlmaiggf84LCdM-80" vertex="1">
          <mxGeometry y="156" width="200" height="26" as="geometry" />
        </mxCell>
        <mxCell id="sBeDFWltFYaBTrh585lc-15" value="bank_account_international_code" style="text;align=left;verticalAlign=top;spacingLeft=4;spacingRight=4;overflow=hidden;rotatable=0;points=[[0,0.5],[1,0.5]];portConstraint=eastwest;" parent="xJLlcKTlmaiggf84LCdM-80" vertex="1">
          <mxGeometry y="182" width="200" height="26" as="geometry" />
        </mxCell>
        <mxCell id="sBeDFWltFYaBTrh585lc-14" value="payment_day" style="text;align=left;verticalAlign=top;spacingLeft=4;spacingRight=4;overflow=hidden;rotatable=0;points=[[0,0.5],[1,0.5]];portConstraint=eastwest;" parent="xJLlcKTlmaiggf84LCdM-80" vertex="1">
          <mxGeometry y="208" width="200" height="26" as="geometry" />
        </mxCell>
        <mxCell id="sBeDFWltFYaBTrh585lc-16" value="delivery_postal_code" style="text;align=left;verticalAlign=top;spacingLeft=4;spacingRight=4;overflow=hidden;rotatable=0;points=[[0,0.5],[1,0.5]];portConstraint=eastwest;" parent="xJLlcKTlmaiggf84LCdM-80" vertex="1">
          <mxGeometry y="234" width="200" height="26" as="geometry" />
        </mxCell>
        <mxCell id="sBeDFWltFYaBTrh585lc-18" value="postal_postal_code" style="text;align=left;verticalAlign=top;spacingLeft=4;spacingRight=4;overflow=hidden;rotatable=0;points=[[0,0.5],[1,0.5]];portConstraint=eastwest;" parent="xJLlcKTlmaiggf84LCdM-80" vertex="1">
          <mxGeometry y="260" width="200" height="26" as="geometry" />
        </mxCell>
        <mxCell id="sBeDFWltFYaBTrh585lc-30" value="" style="endArrow=none;dashed=1;html=1;rounded=0;" parent="xJLlcKTlmaiggf84LCdM-80" edge="1">
          <mxGeometry width="50" height="50" relative="1" as="geometry">
            <mxPoint x="-50" y="280.86999999999995" as="sourcePoint" />
            <mxPoint x="240" y="280.86999999999995" as="targetPoint" />
          </mxGeometry>
        </mxCell>
        <mxCell id="sBeDFWltFYaBTrh585lc-32" value="" style="endArrow=none;dashed=1;html=1;rounded=0;" parent="xJLlcKTlmaiggf84LCdM-80" edge="1">
          <mxGeometry width="50" height="50" relative="1" as="geometry">
            <mxPoint x="-45" y="336.45999999999987" as="sourcePoint" />
            <mxPoint x="245" y="336.45999999999987" as="targetPoint" />
          </mxGeometry>
        </mxCell>
        <mxCell id="sBeDFWltFYaBTrh585lc-35" value="" style="endArrow=none;dashed=1;html=1;rounded=0;" parent="xJLlcKTlmaiggf84LCdM-80" edge="1">
          <mxGeometry width="50" height="50" relative="1" as="geometry">
            <mxPoint x="-45" y="386.46" as="sourcePoint" />
            <mxPoint x="245" y="386.46" as="targetPoint" />
          </mxGeometry>
        </mxCell>
        <mxCell id="sBeDFWltFYaBTrh585lc-36" value="" style="endArrow=none;dashed=1;html=1;rounded=0;" parent="xJLlcKTlmaiggf84LCdM-80" edge="1">
          <mxGeometry width="50" height="50" relative="1" as="geometry">
            <mxPoint x="-45" y="436.46" as="sourcePoint" />
            <mxPoint x="245" y="436.46" as="targetPoint" />
          </mxGeometry>
        </mxCell>
        <mxCell id="Ml-9U8iZSdq3yle-t_jp-2" value="" style="endArrow=none;dashed=1;html=1;rounded=0;" parent="xJLlcKTlmaiggf84LCdM-80" edge="1">
          <mxGeometry width="50" height="50" relative="1" as="geometry">
            <mxPoint x="-45" y="456.46000000000004" as="sourcePoint" />
            <mxPoint x="245" y="456.46000000000004" as="targetPoint" />
          </mxGeometry>
        </mxCell>
        <mxCell id="sBeDFWltFYaBTrh585lc-19" value="supplier_category_key" style="text;align=left;verticalAlign=top;spacingLeft=4;spacingRight=4;overflow=hidden;rotatable=0;points=[[0,0.5],[1,0.5]];portConstraint=eastwest;" parent="xJLlcKTlmaiggf84LCdM-80" vertex="1">
          <mxGeometry y="286" width="200" height="24" as="geometry" />
        </mxCell>
        <mxCell id="sBeDFWltFYaBTrh585lc-31" value="supplier_category_name" style="text;align=left;verticalAlign=top;spacingLeft=4;spacingRight=4;overflow=hidden;rotatable=0;points=[[0,0.5],[1,0.5]];portConstraint=eastwest;" parent="xJLlcKTlmaiggf84LCdM-80" vertex="1">
          <mxGeometry y="310" width="200" height="24" as="geometry" />
        </mxCell>
        <mxCell id="sBeDFWltFYaBTrh585lc-20" value="primary_contact_person_key" style="text;align=left;verticalAlign=top;spacingLeft=4;spacingRight=4;overflow=hidden;rotatable=0;points=[[0,0.5],[1,0.5]];portConstraint=eastwest;" parent="xJLlcKTlmaiggf84LCdM-80" vertex="1">
          <mxGeometry y="334" width="200" height="26" as="geometry" />
        </mxCell>
        <mxCell id="sBeDFWltFYaBTrh585lc-21" value="altermate_contact_person_key" style="text;align=left;verticalAlign=top;spacingLeft=4;spacingRight=4;overflow=hidden;rotatable=0;points=[[0,0.5],[1,0.5]];portConstraint=eastwest;" parent="xJLlcKTlmaiggf84LCdM-80" vertex="1">
          <mxGeometry y="360" width="200" height="26" as="geometry" />
        </mxCell>
        <mxCell id="sBeDFWltFYaBTrh585lc-22" value="delivery_method_key" style="text;align=left;verticalAlign=top;spacingLeft=4;spacingRight=4;overflow=hidden;rotatable=0;points=[[0,0.5],[1,0.5]];portConstraint=eastwest;" parent="xJLlcKTlmaiggf84LCdM-80" vertex="1">
          <mxGeometry y="386" width="200" height="24" as="geometry" />
        </mxCell>
        <mxCell id="sBeDFWltFYaBTrh585lc-34" value="delivery_method_name" style="text;align=left;verticalAlign=top;spacingLeft=4;spacingRight=4;overflow=hidden;rotatable=0;points=[[0,0.5],[1,0.5]];portConstraint=eastwest;" parent="xJLlcKTlmaiggf84LCdM-80" vertex="1">
          <mxGeometry y="410" width="200" height="24" as="geometry" />
        </mxCell>
        <mxCell id="sBeDFWltFYaBTrh585lc-24" value="postal_city_key" style="text;align=left;verticalAlign=top;spacingLeft=4;spacingRight=4;overflow=hidden;rotatable=0;points=[[0,0.5],[1,0.5]];portConstraint=eastwest;" parent="xJLlcKTlmaiggf84LCdM-80" vertex="1">
          <mxGeometry y="434" width="200" height="24" as="geometry" />
        </mxCell>
        <mxCell id="sBeDFWltFYaBTrh585lc-23" value="delivery_city_key" style="text;align=left;verticalAlign=top;spacingLeft=4;spacingRight=4;overflow=hidden;rotatable=0;points=[[0,0.5],[1,0.5]];portConstraint=eastwest;" parent="xJLlcKTlmaiggf84LCdM-80" vertex="1">
          <mxGeometry y="458" width="200" height="24" as="geometry" />
        </mxCell>
        <mxCell id="sBeDFWltFYaBTrh585lc-37" value="city_name" style="text;align=left;verticalAlign=top;spacingLeft=4;spacingRight=4;overflow=hidden;rotatable=0;points=[[0,0.5],[1,0.5]];portConstraint=eastwest;" parent="xJLlcKTlmaiggf84LCdM-80" vertex="1">
          <mxGeometry y="482" width="200" height="24" as="geometry" />
        </mxCell>
        <mxCell id="sBeDFWltFYaBTrh585lc-38" value="location" style="text;align=left;verticalAlign=top;spacingLeft=4;spacingRight=4;overflow=hidden;rotatable=0;points=[[0,0.5],[1,0.5]];portConstraint=eastwest;" parent="xJLlcKTlmaiggf84LCdM-80" vertex="1">
          <mxGeometry y="506" width="200" height="24" as="geometry" />
        </mxCell>
        <mxCell id="sBeDFWltFYaBTrh585lc-41" value="" style="endArrow=none;dashed=1;html=1;rounded=0;dashPattern=1 4;" parent="xJLlcKTlmaiggf84LCdM-80" edge="1">
          <mxGeometry width="50" height="50" relative="1" as="geometry">
            <mxPoint x="-20" y="560" as="sourcePoint" />
            <mxPoint x="220" y="560" as="targetPoint" />
          </mxGeometry>
        </mxCell>
        <mxCell id="sBeDFWltFYaBTrh585lc-39" value="city_last_recorded_population" style="text;align=left;verticalAlign=top;spacingLeft=4;spacingRight=4;overflow=hidden;rotatable=0;points=[[0,0.5],[1,0.5]];portConstraint=eastwest;" parent="xJLlcKTlmaiggf84LCdM-80" vertex="1">
          <mxGeometry y="530" width="200" height="24" as="geometry" />
        </mxCell>
        <mxCell id="sBeDFWltFYaBTrh585lc-40" value="delivery_city_state_province_key" style="text;align=left;verticalAlign=top;spacingLeft=4;spacingRight=4;overflow=hidden;rotatable=0;points=[[0,0.5],[1,0.5]];portConstraint=eastwest;" parent="xJLlcKTlmaiggf84LCdM-80" vertex="1">
          <mxGeometry y="554" width="200" height="24" as="geometry" />
        </mxCell>
        <mxCell id="sBeDFWltFYaBTrh585lc-42" value="delivery_city_state_province_code" style="text;align=left;verticalAlign=top;spacingLeft=4;spacingRight=4;overflow=hidden;rotatable=0;points=[[0,0.5],[1,0.5]];portConstraint=eastwest;" parent="xJLlcKTlmaiggf84LCdM-80" vertex="1">
          <mxGeometry y="578" width="200" height="24" as="geometry" />
        </mxCell>
        <mxCell id="sBeDFWltFYaBTrh585lc-43" value="delivery_city_state_province_name" style="text;align=left;verticalAlign=top;spacingLeft=4;spacingRight=4;overflow=hidden;rotatable=0;points=[[0,0.5],[1,0.5]];portConstraint=eastwest;" parent="xJLlcKTlmaiggf84LCdM-80" vertex="1">
          <mxGeometry y="602" width="200" height="24" as="geometry" />
        </mxCell>
        <mxCell id="sBeDFWltFYaBTrh585lc-45" value="delivery_city_sale_territory" style="text;align=left;verticalAlign=top;spacingLeft=4;spacingRight=4;overflow=hidden;rotatable=0;points=[[0,0.5],[1,0.5]];portConstraint=eastwest;" parent="xJLlcKTlmaiggf84LCdM-80" vertex="1">
          <mxGeometry y="626" width="200" height="24" as="geometry" />
        </mxCell>
        <mxCell id="xJLlcKTlmaiggf84LCdM-87" value="" style="edgeStyle=elbowEdgeStyle;rounded=0;orthogonalLoop=1;jettySize=auto;html=1;entryX=0;entryY=0.5;entryDx=0;entryDy=0;exitX=0;exitY=0.5;exitDx=0;exitDy=0;" parent="WIyWlLk6GJQsqaUBKTNV-1" source="xJLlcKTlmaiggf84LCdM-81" target="xJLlcKTlmaiggf84LCdM-88" edge="1">
          <mxGeometry relative="1" as="geometry">
            <Array as="points">
              <mxPoint x="-130" y="480" />
            </Array>
          </mxGeometry>
        </mxCell>
        <mxCell id="xJLlcKTlmaiggf84LCdM-106" value="Dim_date" style="swimlane;fontStyle=0;align=center;verticalAlign=top;childLayout=stackLayout;horizontal=1;startSize=26;horizontalStack=0;resizeParent=1;resizeLast=0;collapsible=1;marginBottom=0;rounded=0;shadow=0;strokeWidth=1;fillColor=#d5e8d4;strokeColor=#82b366;" parent="WIyWlLk6GJQsqaUBKTNV-1" vertex="1">
          <mxGeometry x="50" y="1130" width="160" height="250" as="geometry">
            <mxRectangle x="340" y="380" width="170" height="26" as="alternateBounds" />
          </mxGeometry>
        </mxCell>
        <mxCell id="xJLlcKTlmaiggf84LCdM-107" value="date" style="text;align=left;verticalAlign=top;spacingLeft=4;spacingRight=4;overflow=hidden;rotatable=0;points=[[0,0.5],[1,0.5]];portConstraint=eastwest;" parent="xJLlcKTlmaiggf84LCdM-106" vertex="1">
          <mxGeometry y="26" width="160" height="26" as="geometry" />
        </mxCell>
        <mxCell id="xJLlcKTlmaiggf84LCdM-108" value="day_of_week" style="text;align=left;verticalAlign=top;spacingLeft=4;spacingRight=4;overflow=hidden;rotatable=0;points=[[0,0.5],[1,0.5]];portConstraint=eastwest;" parent="xJLlcKTlmaiggf84LCdM-106" vertex="1">
          <mxGeometry y="52" width="160" height="26" as="geometry" />
        </mxCell>
        <mxCell id="xJLlcKTlmaiggf84LCdM-109" value="day_of_week_short" style="text;align=left;verticalAlign=top;spacingLeft=4;spacingRight=4;overflow=hidden;rotatable=0;points=[[0,0.5],[1,0.5]];portConstraint=eastwest;" parent="xJLlcKTlmaiggf84LCdM-106" vertex="1">
          <mxGeometry y="78" width="160" height="26" as="geometry" />
        </mxCell>
        <mxCell id="xJLlcKTlmaiggf84LCdM-110" value="is_weekday_or_weekend" style="text;align=left;verticalAlign=top;spacingLeft=4;spacingRight=4;overflow=hidden;rotatable=0;points=[[0,0.5],[1,0.5]];portConstraint=eastwest;" parent="xJLlcKTlmaiggf84LCdM-106" vertex="1">
          <mxGeometry y="104" width="160" height="26" as="geometry" />
        </mxCell>
        <mxCell id="xJLlcKTlmaiggf84LCdM-111" value=" year_month" style="text;align=left;verticalAlign=top;spacingLeft=4;spacingRight=4;overflow=hidden;rotatable=0;points=[[0,0.5],[1,0.5]];portConstraint=eastwest;" parent="xJLlcKTlmaiggf84LCdM-106" vertex="1">
          <mxGeometry y="130" width="160" height="26" as="geometry" />
        </mxCell>
        <mxCell id="xJLlcKTlmaiggf84LCdM-112" value="month" style="text;align=left;verticalAlign=top;spacingLeft=4;spacingRight=4;overflow=hidden;rotatable=0;points=[[0,0.5],[1,0.5]];portConstraint=eastwest;" parent="xJLlcKTlmaiggf84LCdM-106" vertex="1">
          <mxGeometry y="156" width="160" height="26" as="geometry" />
        </mxCell>
        <mxCell id="xJLlcKTlmaiggf84LCdM-113" value="year" style="text;align=left;verticalAlign=top;spacingLeft=4;spacingRight=4;overflow=hidden;rotatable=0;points=[[0,0.5],[1,0.5]];portConstraint=eastwest;" parent="xJLlcKTlmaiggf84LCdM-106" vertex="1">
          <mxGeometry y="182" width="160" height="26" as="geometry" />
        </mxCell>
        <mxCell id="xJLlcKTlmaiggf84LCdM-114" value="year_number" style="text;align=left;verticalAlign=top;spacingLeft=4;spacingRight=4;overflow=hidden;rotatable=0;points=[[0,0.5],[1,0.5]];portConstraint=eastwest;" parent="xJLlcKTlmaiggf84LCdM-106" vertex="1">
          <mxGeometry y="208" width="160" height="26" as="geometry" />
        </mxCell>
        <mxCell id="xJLlcKTlmaiggf84LCdM-115" value="" style="endArrow=block;endSize=10;endFill=0;shadow=0;strokeWidth=1;rounded=0;edgeStyle=elbowEdgeStyle;entryX=0;entryY=0.5;entryDx=0;entryDy=0;" parent="WIyWlLk6GJQsqaUBKTNV-1" source="xJLlcKTlmaiggf84LCdM-107" target="xJLlcKTlmaiggf84LCdM-145" edge="1">
          <mxGeometry width="160" relative="1" as="geometry">
            <mxPoint x="210" y="660" as="sourcePoint" />
            <mxPoint x="630" y="321" as="targetPoint" />
            <Array as="points">
              <mxPoint x="370" y="880" />
            </Array>
          </mxGeometry>
        </mxCell>
        <mxCell id="xJLlcKTlmaiggf84LCdM-121" value="Dim_package_type" style="swimlane;fontStyle=0;align=center;verticalAlign=top;childLayout=stackLayout;horizontal=1;startSize=26;horizontalStack=0;resizeParent=1;resizeLast=0;collapsible=1;marginBottom=0;rounded=0;shadow=0;strokeWidth=1;fillColor=#d5e8d4;strokeColor=#82b366;" parent="WIyWlLk6GJQsqaUBKTNV-1" vertex="1">
          <mxGeometry x="50" y="1010" width="160" height="90" as="geometry">
            <mxRectangle x="340" y="380" width="170" height="26" as="alternateBounds" />
          </mxGeometry>
        </mxCell>
        <mxCell id="xJLlcKTlmaiggf84LCdM-122" value="package_type_key" style="text;align=left;verticalAlign=top;spacingLeft=4;spacingRight=4;overflow=hidden;rotatable=0;points=[[0,0.5],[1,0.5]];portConstraint=eastwest;" parent="xJLlcKTlmaiggf84LCdM-121" vertex="1">
          <mxGeometry y="26" width="160" height="26" as="geometry" />
        </mxCell>
        <mxCell id="xJLlcKTlmaiggf84LCdM-123" value="package_type_name" style="text;align=left;verticalAlign=top;spacingLeft=4;spacingRight=4;overflow=hidden;rotatable=0;points=[[0,0.5],[1,0.5]];portConstraint=eastwest;" parent="xJLlcKTlmaiggf84LCdM-121" vertex="1">
          <mxGeometry y="52" width="160" height="26" as="geometry" />
        </mxCell>
        <mxCell id="xJLlcKTlmaiggf84LCdM-137" value="" style="endArrow=block;endSize=10;endFill=0;shadow=0;strokeWidth=1;rounded=0;edgeStyle=elbowEdgeStyle;entryX=0;entryY=0.5;entryDx=0;entryDy=0;" parent="WIyWlLk6GJQsqaUBKTNV-1" source="xJLlcKTlmaiggf84LCdM-122" target="xJLlcKTlmaiggf84LCdM-138" edge="1">
          <mxGeometry width="160" relative="1" as="geometry">
            <mxPoint x="780" y="530" as="sourcePoint" />
            <mxPoint x="680" y="500" as="targetPoint" />
            <Array as="points">
              <mxPoint x="300" y="980" />
            </Array>
          </mxGeometry>
        </mxCell>
        <mxCell id="xJLlcKTlmaiggf84LCdM-187" value="" style="endArrow=none;dashed=1;html=1;rounded=0;" parent="WIyWlLk6GJQsqaUBKTNV-1" edge="1">
          <mxGeometry width="50" height="50" relative="1" as="geometry">
            <mxPoint x="740" y="831" as="sourcePoint" />
            <mxPoint x="1030" y="831" as="targetPoint" />
          </mxGeometry>
        </mxCell>
        <mxCell id="sBeDFWltFYaBTrh585lc-25" value="" style="endArrow=none;dashed=1;html=1;rounded=0;" parent="WIyWlLk6GJQsqaUBKTNV-1" edge="1">
          <mxGeometry width="50" height="50" relative="1" as="geometry">
            <mxPoint x="740" y="1240" as="sourcePoint" />
            <mxPoint x="1030" y="1240" as="targetPoint" />
          </mxGeometry>
        </mxCell>
        <mxCell id="sBeDFWltFYaBTrh585lc-27" value="" style="endArrow=none;dashed=1;html=1;rounded=0;" parent="WIyWlLk6GJQsqaUBKTNV-1" edge="1">
          <mxGeometry width="50" height="50" relative="1" as="geometry">
            <mxPoint x="740" y="1290" as="sourcePoint" />
            <mxPoint x="1030" y="1290" as="targetPoint" />
          </mxGeometry>
        </mxCell>
        <mxCell id="sBeDFWltFYaBTrh585lc-33" value="" style="edgeStyle=elbowEdgeStyle;rounded=0;orthogonalLoop=1;jettySize=auto;html=1;exitX=0;exitY=0.5;exitDx=0;exitDy=0;" parent="WIyWlLk6GJQsqaUBKTNV-1" source="sBeDFWltFYaBTrh585lc-20" edge="1">
          <mxGeometry relative="1" as="geometry">
            <mxPoint x="1070" y="489" as="sourcePoint" />
            <mxPoint x="810" y="69" as="targetPoint" />
            <Array as="points">
              <mxPoint x="-190" y="230" />
            </Array>
          </mxGeometry>
        </mxCell>
        <mxCell id="k6A8KLiCEBiVcEmz783S-82" value="" style="endArrow=none;dashed=1;html=1;rounded=0;" parent="WIyWlLk6GJQsqaUBKTNV-1" edge="1">
          <mxGeometry width="50" height="50" relative="1" as="geometry">
            <mxPoint x="379.9999999999998" y="310" as="sourcePoint" />
            <mxPoint x="670" y="310" as="targetPoint" />
          </mxGeometry>
        </mxCell>
        <mxCell id="k6A8KLiCEBiVcEmz783S-83" value="" style="endArrow=none;dashed=1;html=1;rounded=0;" parent="WIyWlLk6GJQsqaUBKTNV-1" edge="1">
          <mxGeometry width="50" height="50" relative="1" as="geometry">
            <mxPoint x="369.9999999999998" y="540" as="sourcePoint" />
            <mxPoint x="660" y="540" as="targetPoint" />
          </mxGeometry>
        </mxCell>
        <mxCell id="Ml-9U8iZSdq3yle-t_jp-12" value="" style="endArrow=block;endSize=10;endFill=0;shadow=0;strokeWidth=1;rounded=0;edgeStyle=elbowEdgeStyle;entryX=1;entryY=0.5;entryDx=0;entryDy=0;exitX=0;exitY=0.5;exitDx=0;exitDy=0;" parent="WIyWlLk6GJQsqaUBKTNV-1" source="xJLlcKTlmaiggf84LCdM-189" target="xJLlcKTlmaiggf84LCdM-122" edge="1">
          <mxGeometry width="160" relative="1" as="geometry">
            <mxPoint x="220" y="1059" as="sourcePoint" />
            <mxPoint x="430" y="642.9999999999998" as="targetPoint" />
          </mxGeometry>
        </mxCell>
        <mxCell id="Ml-9U8iZSdq3yle-t_jp-13" value="" style="endArrow=block;endSize=10;endFill=0;shadow=0;strokeWidth=1;rounded=0;edgeStyle=elbowEdgeStyle;entryX=1;entryY=0.5;entryDx=0;entryDy=0;exitX=0;exitY=0.5;exitDx=0;exitDy=0;" parent="WIyWlLk6GJQsqaUBKTNV-1" source="sBeDFWltFYaBTrh585lc-28" edge="1">
          <mxGeometry width="160" relative="1" as="geometry">
            <mxPoint x="780" y="1304" as="sourcePoint" />
            <mxPoint x="210" y="1050" as="targetPoint" />
          </mxGeometry>
        </mxCell>
        <mxCell id="BoJe7YM0-NKBy9dzcwYk-0" value="" style="endArrow=none;dashed=1;html=1;rounded=0;" edge="1" parent="WIyWlLk6GJQsqaUBKTNV-1">
          <mxGeometry width="50" height="50" relative="1" as="geometry">
            <mxPoint x="400" y="360" as="sourcePoint" />
            <mxPoint x="650" y="360" as="targetPoint" />
          </mxGeometry>
        </mxCell>
        <mxCell id="BoJe7YM0-NKBy9dzcwYk-2" value="" style="endArrow=block;endSize=10;endFill=0;shadow=0;strokeWidth=1;rounded=0;edgeStyle=elbowEdgeStyle;exitX=0;exitY=0.5;exitDx=0;exitDy=0;entryX=1;entryY=0.5;entryDx=0;entryDy=0;" edge="1" parent="WIyWlLk6GJQsqaUBKTNV-1" source="zkfFHV4jXpPFQw0GAbJ--14" target="xJLlcKTlmaiggf84LCdM-5">
          <mxGeometry width="160" relative="1" as="geometry">
            <mxPoint x="220" y="139.0000000000001" as="sourcePoint" />
            <mxPoint x="430" y="356.9999999999998" as="targetPoint" />
          </mxGeometry>
        </mxCell>
      </root>
    </mxGraphModel>
  </diagram>
</mxfile>
